# xmcd
#
# Track frame offsets:
#	150
#	18285
#	60907
#	88676
#	129304
#	155247
#	177095
#	229765
#	239557
#	278737
#
# Disc length: 3832 seconds
#
# Revision: 2
# Processed by: cddbd v1.5.2PL0 Copyright (c) Steve Scherf et al.
# Submitted via: audiograbber 1.83.01
#
DISCID=7b0ef60a
DTITLE=Hermann Hesse - Das Glasperlenspiel
DYEAR=2002
DGENRE=Hörspiel
TTITLE0=501
TTITLE1=502
TTITLE2=503
TTITLE3=504
TTITLE4=505
TTITLE5=506
TTITLE6=507
TTITLE7=508
TTITLE8=509
TTITLE9=510
EXTD=Sprecher Rudolf Wessely,Ulrich Matthes,Barbara  Nüsse\nBearbeitung Michael
EXTD=Farin
EXTT0=
EXTT1=
EXTT2=
EXTT3=
EXTT4=
EXTT5=
EXTT6=
EXTT7=
EXTT8=
EXTT9=
PLAYORDER=
